<svg width="100%" viewBox="0 0 680 480" xmlns="http://www.w3.org/2000/svg" style="background:#ffffff;border-radius:12px">
<rect width="680" height="480" fill="#ffffff" rx="12"/>
<defs>
<marker id="a" viewBox="0 0 10 10" refX="8" refY="5" markerWidth="6" markerHeight="6" orient="auto-start-reverse"><path d="M2 1L8 5L2 9" fill="none" stroke="#5F5E5A" stroke-width="1.5" stroke-linecap="round" stroke-linejoin="round"/></marker>
<marker id="ag" viewBox="0 0 10 10" refX="8" refY="5" markerWidth="6" markerHeight="6" orient="auto-start-reverse"><path d="M2 1L8 5L2 9" fill="none" stroke="#0F6E56" stroke-width="1.5" stroke-linecap="round" stroke-linejoin="round"/></marker>
</defs>

<text x="340" y="28" text-anchor="middle" font-family="system-ui,sans-serif" font-size="14" font-weight="500" fill="#2C2C2A">Changing a config file (two paths)</text>

<!-- Scenario labels -->
<rect x="20" y="50" width="310" height="36" rx="8" fill="#EEEDFE" stroke="#534AB7" stroke-width="0.5"/>
<text x="175" y="72" text-anchor="middle" dominant-baseline="central" font-family="system-ui,sans-serif" font-size="12" font-weight="500" fill="#3C3489">Scenario A: you edit via dfe (ideal)</text>

<rect x="350" y="50" width="310" height="36" rx="8" fill="#FAECE7" stroke="#993C1D" stroke-width="0.5"/>
<text x="505" y="72" text-anchor="middle" dominant-baseline="central" font-family="system-ui,sans-serif" font-size="12" font-weight="500" fill="#712B13">Scenario B: you edit the file directly</text>

<!-- Scenario A flow -->
<rect x="40" y="110" width="270" height="36" rx="8" fill="#F1EFE8" stroke="#5F5E5A" stroke-width="0.5"/>
<text x="175" y="132" text-anchor="middle" dominant-baseline="central" font-family="system-ui,sans-serif" font-size="12" font-weight="500" fill="#2C2C2A">dfe ~/.config/fish/config.fish</text>

<line x1="175" y1="146" x2="175" y2="170" stroke="#5F5E5A" stroke-width="1.5" marker-end="url(#a)"/>

<rect x="40" y="172" width="270" height="36" rx="8" fill="#EEEDFE" stroke="#534AB7" stroke-width="0.5"/>
<text x="175" y="194" text-anchor="middle" dominant-baseline="central" font-family="system-ui,sans-serif" font-size="12" fill="#3C3489">Edit source in $EDITOR, save</text>

<line x1="175" y1="208" x2="175" y2="232" stroke="#5F5E5A" stroke-width="1.5" marker-end="url(#a)"/>

<rect x="40" y="234" width="270" height="36" rx="8" fill="#E1F5EE" stroke="#0F6E56" stroke-width="0.5"/>
<text x="175" y="256" text-anchor="middle" dominant-baseline="central" font-family="system-ui,sans-serif" font-size="12" fill="#04342C">chezmoi apply (automatic)</text>

<line x1="175" y1="270" x2="175" y2="294" stroke="#5F5E5A" stroke-width="1.5" marker-end="url(#a)"/>

<rect x="40" y="296" width="270" height="36" rx="8" fill="#EEEDFE" stroke="#534AB7" stroke-width="0.5"/>
<text x="175" y="318" text-anchor="middle" dominant-baseline="central" font-family="system-ui,sans-serif" font-size="12" fill="#3C3489">git commit (automatic)</text>

<line x1="175" y1="332" x2="175" y2="356" stroke="#5F5E5A" stroke-width="1.5" marker-end="url(#a)"/>

<rect x="40" y="358" width="270" height="36" rx="8" fill="#E1F5EE" stroke="#0F6E56" stroke-width="0.5"/>
<text x="175" y="380" text-anchor="middle" dominant-baseline="central" font-family="system-ui,sans-serif" font-size="12" font-weight="500" fill="#04342C">Done. Machine + repo in sync.</text>

<!-- Scenario B flow -->
<rect x="370" y="110" width="270" height="50" rx="8" fill="#FAECE7" stroke="#993C1D" stroke-width="0.5"/>
<text x="505" y="128" text-anchor="middle" dominant-baseline="central" font-family="system-ui,sans-serif" font-size="12" font-weight="500" fill="#712B13">vim ~/.config/fish/config.fish</text>
<text x="505" y="146" text-anchor="middle" dominant-baseline="central" font-family="system-ui,sans-serif" font-size="11" fill="#993C1D">(edited deployed file, not source)</text>

<line x1="505" y1="160" x2="505" y2="184" stroke="#5F5E5A" stroke-width="1.5" marker-end="url(#a)"/>

<rect x="370" y="186" width="270" height="50" rx="8" fill="#FAECE7" stroke="#993C1D" stroke-width="0.5"/>
<text x="505" y="204" text-anchor="middle" dominant-baseline="central" font-family="system-ui,sans-serif" font-size="12" fill="#712B13">Machine updated, repo NOT</text>
<text x="505" y="222" text-anchor="middle" dominant-baseline="central" font-family="system-ui,sans-serif" font-size="11" fill="#993C1D">Next chezmoi apply will overwrite!</text>

<line x1="505" y1="236" x2="505" y2="260" stroke="#5F5E5A" stroke-width="1.5" marker-end="url(#a)"/>

<!-- Recovery -->
<rect x="370" y="262" width="270" height="36" rx="8" fill="#F1EFE8" stroke="#5F5E5A" stroke-width="0.5"/>
<text x="505" y="284" text-anchor="middle" dominant-baseline="central" font-family="system-ui,sans-serif" font-size="12" font-weight="500" fill="#2C2C2A">Fix: run dfs</text>

<line x1="505" y1="298" x2="505" y2="322" stroke="#0F6E56" stroke-width="1.5" marker-end="url(#ag)"/>

<rect x="370" y="324" width="270" height="36" rx="8" fill="#E1F5EE" stroke="#0F6E56" stroke-width="0.5"/>
<text x="505" y="346" text-anchor="middle" dominant-baseline="central" font-family="system-ui,sans-serif" font-size="12" fill="#04342C">Detects drift, shows changes</text>

<line x1="505" y1="360" x2="505" y2="384" stroke="#0F6E56" stroke-width="1.5" marker-end="url(#ag)"/>

<rect x="370" y="386" width="270" height="36" rx="8" fill="#E1F5EE" stroke="#0F6E56" stroke-width="0.5"/>
<text x="505" y="408" text-anchor="middle" dominant-baseline="central" font-family="system-ui,sans-serif" font-size="12" fill="#04342C">Confirm, re-add, auto-commit</text>

<line x1="505" y1="422" x2="505" y2="446" stroke="#0F6E56" stroke-width="1.5" marker-end="url(#ag)"/>

<rect x="370" y="448" width="270" height="24" rx="6" fill="#E1F5EE" stroke="#0F6E56" stroke-width="0.5"/>
<text x="505" y="464" text-anchor="middle" dominant-baseline="central" font-family="system-ui,sans-serif" font-size="11" font-weight="500" fill="#04342C">Recovered. Now in sync.</text>
</svg>